<?xml version="1.0" encoding="utf-8"?>
<!-- Generator: Adobe Illustrator 27.5.0, SVG Export Plug-In . SVG Version: 6.00 Build 0)  -->
<svg version="1.1" xmlns="http://www.w3.org/2000/svg" xmlns:xlink="http://www.w3.org/1999/xlink" x="0px" y="0px"
	 viewBox="0 0 3710 3710" style="enable-background:new 0 0 3710 3710;" xml:space="preserve">
<g id="Background">
	<g>
		<g>
			<rect style="fill:#FFFFFF;" width="3710" height="3710"/>
		</g>
	</g>
</g>
<g id="Illustration">
	<g id="Enterprise_architecture">
		<path style="fill:#F4F7FA;" d="M1856.221,598.409c0,0-955.476,58.006-931.934,598.189c6.749,154.867-31.82,309.867-145.42,425.425
			c-71.322,72.549-166.512,125.419-216.616,215.574c-99.034,178.208-33.83,396.137,20.784,574.823
			c54.288,177.612,89.766,364.34,195.651,522.427c57.891,86.432,136.053,170.9,221.739,233.251
			c118.872,86.499,271.521,123.412,419.665,125.675c850.711,12.994,1790.422-47.013,1885.582-1116.436
			C3400.834,1107.914,2767.942,459.177,1856.221,598.409z"/>
		<g>
			<g>
				<defs>
					<path id="SVGID_1_" d="M1756.123,1819.993l156.895-202.405c0,0-74.295-118.585-186.019-125.783
						c-227.951-14.686-199.179-213.308-199.574-298.301c-0.595-128.178-57.02-240.872-187.048-153.879
						c-130.029,86.994-220.449-171.804-191.575-378.948c28.255-202.705-315.772-369.898-417.21,63.216
						c-60.578,258.655,165.004,385.649,263.676,476.863c98.671,91.214-14.551,255.356,156.444,301.69
						c146.061,39.578,294.313,14.577,318.511,140.115S1574.173,1840.965,1756.123,1819.993z"/>
				</defs>
				
					<linearGradient id="SVGID_00000013879351761434250650000008230355937957881535_" gradientUnits="userSpaceOnUse" x1="-4683.272" y1="-3150.613" x2="-3217.5469" y2="-3150.613" gradientTransform="matrix(-0.1387 -0.9903 0.9903 -0.1387 3877.9805 -3206.0134)">
					<stop  offset="0" style="stop-color:#FFC444"/>
					<stop  offset="0.9964" style="stop-color:#F36F56"/>
				</linearGradient>
				
					<use xlink:href="#SVGID_1_"  style="overflow:visible;fill:url(#SVGID_00000013879351761434250650000008230355937957881535_);"/>
				<clipPath id="SVGID_00000097465094654823489560000003878411568077195448_">
					<use xlink:href="#SVGID_1_"  style="overflow:visible;"/>
				</clipPath>
				
					<linearGradient id="SVGID_00000126284383983682214990000013189442200628560544_" gradientUnits="userSpaceOnUse" x1="-225.9245" y1="831.4439" x2="-735.7482" y2="2280.4177" gradientTransform="matrix(0.6126 -0.7904 0.7904 0.6126 336.9098 -139.2327)">
					<stop  offset="0" style="stop-color:#FFC444"/>
					<stop  offset="0.9964" style="stop-color:#F36F56"/>
				</linearGradient>
				
					<path style="clip-path:url(#SVGID_00000097465094654823489560000003878411568077195448_);fill:url(#SVGID_00000126284383983682214990000013189442200628560544_);" d="
					M1756.123,1819.993l156.895-202.405c0,0-74.295-118.585-186.019-125.783c-227.951-14.686-199.179-213.308-199.574-298.301
					c-0.595-128.178-54.015-225.866-180.713-170.491c-143.352,62.654-226.785-155.192-197.911-362.336
					c28.255-202.705-315.772-369.898-417.21,63.216c-60.578,258.655,165.004,385.649,263.676,476.863
					c98.671,91.214-14.551,255.356,156.444,301.69c146.061,39.578,294.313,14.577,318.511,140.115
					S1574.173,1840.965,1756.123,1819.993z"/>
				<g style="opacity:0.5;clip-path:url(#SVGID_00000097465094654823489560000003878411568077195448_);">
					<path style="fill:#BEB8F2;" d="M1842.813,1746.953l2.488-4.8c-2.973-1.541-300.076-156.866-548.176-399.655
						c-228.568-223.672-461.104-569.51-270.902-946.867l-4.827-2.434c-84.67,167.981-94.058,343.78-27.907,522.515
						c52.844,142.778,153.755,287.696,299.932,430.728C1542.102,1589.766,1839.835,1745.408,1842.813,1746.953z"/>
					<path style="fill:#BEB8F2;" d="M1024.358,989.206l2.758-4.652c-154.748-91.826-313.542-300.989-315.129-303.09l-4.317,3.254
						C709.264,686.829,868.703,896.841,1024.358,989.206z"/>
					<path style="fill:#BEB8F2;" d="M983.545,868.907c21.881-213.309,169.055-314.367,170.538-315.362l-3.01-4.489
						c-1.508,1.008-150.756,103.375-172.907,319.299L983.545,868.907z"/>
					<path style="fill:#BEB8F2;" d="M1467.972,1492.387c-164.424-203.937-1.441-516.234,0.401-519.144l-4.364-3.182
						c-2.078,2.684-166.13,319.971-0.245,525.718L1467.972,1492.387z"/>
					<path style="fill:#BEB8F2;" d="M1381.585,1427.536l2.373-4.861c-150.205-73.363-347.971-2.044-349.952-1.314l1.867,5.073
						C1037.833,1425.712,1233.478,1355.192,1381.585,1427.536z"/>
					<path style="fill:#BEB8F2;" d="M1799.087,1716.682c-73.635-66.943-48.945-227.02-48.688-228.629l-5.336-0.856
						c-1.075,6.685-25.421,164.569,50.389,233.485L1799.087,1716.682z"/>
					<path style="fill:#BEB8F2;" d="M1728.236,1680.845l2.545-4.77c-69.416-37.052-209.533,2.674-255.577,15.729
						c-6.507,1.844-12.124,3.437-13.181,3.524l0.365,5.394c1.492-0.101,5.229-1.149,14.29-3.716
						C1522.204,1684.098,1660.744,1644.819,1728.236,1680.845z"/>
				</g>
			</g>
			<g>
				
					<linearGradient id="SVGID_00000029755250861812404840000007819791081269722811_" gradientUnits="userSpaceOnUse" x1="3743.9333" y1="-3283.9753" x2="4385.8169" y2="-1597.3716" gradientTransform="matrix(0.1609 0.987 0.987 -0.1609 3005.98 -2528.3513)">
					<stop  offset="0.0036" style="stop-color:#E38DDD"/>
					<stop  offset="1" style="stop-color:#9571F6"/>
				</linearGradient>
				<path style="fill:url(#SVGID_00000029755250861812404840000007819791081269722811_);" d="M1671.03,1738.09
					c53.086-44.472,118.822-30.717,164.831-13.312c1.448,6.495,3.937,9.863,6.841,16.069
					c26.211,56.026,25.454,85.513,42.571,144.814c3.684,12.765,3.104,53.519,1.797,70.155l-2.931,30.977
					c0,0-133.802,86.62-191.19,16.371c-57.388-70.25-194.903-4.103-272.071,21.961c-47.388,16.005-74.187,8.145-92.543,11.23
					c-194.313,32.665-237.853,103.483-307.565,75.29c-76.957-31.124-45.924-126.336-127.852-164.617
					c-92.513-43.225-194.195,49.16-272.602-11.309c-13.442-10.367-26.972-21.384-38.035-41.143
					c-27.306-48.77-6.579-98.228-58.137-125.673c-103.634-55.165-161.81-171.753-88.322-267.869
					c72.529-94.86,267.748-49.326,457.07,136.711c149.723,116.951,185.559,110.537,269.131,77.865
					c58.537-22.883,202.087-123.705,283.988-50.665C1527.913,1737.987,1610.343,1788.931,1671.03,1738.09z"/>
				<g>
					<defs>
						<path id="SVGID_00000147937331291411060770000011182869289546559909_" d="M1892.967,1751.275l-4.612,229.386
							c0,0-138.017,92.754-195.406,22.504c-57.389-70.25-194.902-4.103-272.072,21.961
							c-209.38,70.719-244.063-183.318-519.995-115.708c-73.389,17.982-207.616,78.808-280.566,26.304
							c-83.112-59.817-29.866-131.521-96.172-166.816c-103.634-55.165-161.809-171.754-88.322-267.868
							c72.529-94.861,267.749-49.326,457.07,136.709c149.724,116.953,185.56,110.537,269.131,77.866
							c58.537-22.884,202.088-123.705,283.989-50.665c81.9,73.04,164.33,123.983,225.018,73.143
							C1763.374,1660.731,1892.967,1751.275,1892.967,1751.275z"/>
					</defs>
					<clipPath id="SVGID_00000102503078706168620880000010517827528193173161_">
						<use xlink:href="#SVGID_00000147937331291411060770000011182869289546559909_"  style="overflow:visible;"/>
					</clipPath>
					<g style="opacity:0.5;clip-path:url(#SVGID_00000102503078706168620880000010517827528193173161_);">
						<path style="fill:#FCFDFE;" d="M1880.707,1853.715l0.447,4.526c-24.967,2.7-50.179,5.09-74.936,7.103
							c-183.304,14.894-361.374,10.769-529.269-12.268c-142.262-19.521-279.225-52.858-407.084-99.086
							c-102.824-37.176-200.345-82.854-289.855-135.766c-62.924-37.197-121.269-77.555-173.412-119.959
							c-9.088-7.388-18.003-15.489-26.625-23.325c-11.486-10.439-23.364-21.234-35.745-30.421l2.372-3.743
							c12.551,9.313,24.509,20.18,36.074,30.69c8.578,7.797,17.449,15.858,26.445,23.171c51.98,42.27,110.15,82.509,172.897,119.6
							c89.288,52.781,186.578,98.348,289.165,135.44c127.596,46.133,264.286,79.403,406.274,98.886
							c167.611,22.998,345.398,27.116,528.419,12.243C1830.596,1858.798,1855.772,1856.412,1880.707,1853.715z"/>
						<path style="fill:#FCFDFE;" d="M1028.828,1798.987l-0.87,4.446c-176.965-41.643-456.089,101.854-458.886,103.309l-1.85-4.102
							C570.034,1901.179,850.446,1757.011,1028.828,1798.987z"/>
						<path style="fill:#FCFDFE;" d="M1533.04,1868.694l-0.385,4.527c-123.239-13.13-261.646-222.762-263.03-224.878l3.439-2.609
							C1274.436,1647.833,1411.727,1855.77,1533.04,1868.694z"/>
						<path style="fill:#FCFDFE;" d="M1603.522,1869.622l0.36,4.535c-80.489,6.914-186.551,62.795-298.641,157.349
							c-5.637,4.755-5.637,4.755-6.433,4.835l-0.413-4.531l0.206,2.266l-0.973-2.015c0.409-0.27,2.537-2.065,5.004-4.147
							C1415.364,1932.821,1522.22,1876.604,1603.522,1869.622z"/>
						<path style="fill:#FCFDFE;" d="M1835.075,1857.946l-0.854,4.447c-87.132-20.107-147.39-147.299-147.988-148.58l3.76-2.027
							C1690.583,1713.05,1749.938,1838.299,1835.075,1857.946z"/>
						<path style="fill:#FCFDFE;" d="M1882.48,1860.343c-64.498,33.482-122.079,88.115-176.032,167.022l-3.398-2.719
							c54.368-79.512,112.457-134.597,177.584-168.405L1882.48,1860.343z"/>
						<path style="fill:#FCFDFE;" d="M635.199,1644.47l-1.1,4.382c-97.23-29.064-205.47-35.31-241.038-37.362
							c-8.61-0.497-11.64-0.682-12.686-0.945l0.929-4.43c0.801,0.189,5.723,0.473,11.955,0.832
							C428.941,1609.006,537.525,1615.273,635.199,1644.47z"/>
						<path style="fill:#FCFDFE;" d="M786.968,1716.926l-2.25,3.831c-79.877-54.982-120.946-254.317-122.655-262.775l4.118-0.94
							C666.596,1459.093,708.583,1662.97,786.968,1716.926z"/>
					</g>
				</g>
			</g>
			<g>
				
					<linearGradient id="SVGID_00000060022289820248988160000011229373874213021088_" gradientUnits="userSpaceOnUse" x1="9561.6152" y1="-3052.9409" x2="10356.0586" y2="-1745.0828" gradientTransform="matrix(0.0565 0.9984 0.9984 -0.0565 3051.2712 -8455.5889)">
					<stop  offset="0" style="stop-color:#AA80F9"/>
					<stop  offset="0.9964" style="stop-color:#6165D7"/>
				</linearGradient>
				<path style="fill:url(#SVGID_00000060022289820248988160000011229373874213021088_);" d="M1886.747,1730.337
					c-1.076,15.692,142.196,70.625,41.897,121.882c-25.058,12.805-113.254,30.824-110.688,146.473
					c0.498,22.449,0.994,44.9,1.492,67.349c-49.214,22.182-99.708,33.97-122.908-32.895
					c-36.028-103.84-212.227-93.766-272.839-60.237c-75.02,41.498-251.548,134.34-309.637-25.248
					c-48.36-132.856-53.865-229.248-219.498-226.899c-165.635,2.349-274.112-85.668-273.401-244.906
					c0.749-167.573-216.835-289.316-154.538-431.033c108.554-246.932,484.756-57.299,606.789,224.768
					c122.033,282.065,211.054,108.844,345.706,91.329c12.592-0.918,32.184-1.369,55.411,2.487
					c142.993,23.747,175.816,169.694,297.473,268.412C1937.919,1766.451,1888.561,1703.901,1886.747,1730.337z"/>
				<g>
					<defs>
						<path id="SVGID_00000141455731431004633070000006172189422288544149_" d="M1840.173,1687.111l18.184,363.706
							c-47.561,24.273-135.903,57.019-161.817-17.671c-36.03-103.841-212.227-93.767-272.84-60.238
							c-75.019,41.498-251.548,134.34-309.638-25.248c-48.36-132.855-53.864-229.247-219.498-226.897
							c-165.634,2.349-274.111-85.669-273.4-244.907c0.749-167.573-216.836-289.315-154.537-431.031
							c108.552-246.933,484.753-57.299,606.787,224.767c122.034,282.066,211.054,108.846,345.706,91.33
							c183.83-23.913,159.589,242.946,236.054,307.484C1715.12,1718.999,1792.921,1703.226,1840.173,1687.111z"/>
					</defs>
					<clipPath id="SVGID_00000049194088215292841410000016256223193934648470_">
						<use xlink:href="#SVGID_00000141455731431004633070000006172189422288544149_"  style="overflow:visible;"/>
					</clipPath>
					<g style="opacity:0.5;clip-path:url(#SVGID_00000049194088215292841410000016256223193934648470_);">
						<path style="fill:#FCFDFE;" d="M1794.709,1861.794l-1.049,7.825c-539.448-77.412-1038.963-432.06-1303.61-925.546l6.487-3.935
							C760.068,1431.544,1257.501,1784.703,1794.709,1861.794z"/>
						<path style="fill:#FCFDFE;" d="M1504.188,1792.874l0.429,7.88c-213.79,14.568-369.939,219.727-371.491,221.799l-5.824-4.884
							C1128.87,2015.569,1287.028,1807.673,1504.188,1792.874z"/>
						<path style="fill:#FCFDFE;" d="M1695.858,1844.684l-3.157,7.175c-196.658-95.978-246.244-511.153-246.721-515.336l7.4-1.002
							C1453.852,1339.657,1502.94,1750.531,1695.858,1844.684z"/>
						<path style="fill:#FCFDFE;" d="M1025.925,1544.598l-2.567,7.433c-161.667-61.708-398.49,63.853-400.863,65.127l-3.338-7.033
							C621.559,1608.833,861.272,1481.748,1025.925,1544.598z"/>
						<path style="fill:#FCFDFE;" d="M761.256,1310.377l-6.117,4.561c-112.163-169.755-70.317-447.369-69.877-450.157l7.353,1.238
							C692.18,868.771,650.838,1143.269,761.256,1310.377z"/>
					</g>
				</g>
			</g>
		</g>
		<g>
			<g>
				<path style="fill:#BFC8D6;" d="M3309.802,2964.661l-2657.228-22.969v67.96c0,18.446,11.59,34.13,27.286,36.926l751.385,133.826
					c8.917,1.588,17.96,2.01,26.958,1.256l1822.723-152.583c16.273-1.362,28.876-17.095,28.876-36.047V2964.661z"/>
				<g>
					<path style="fill:#BFC8D6;" d="M2331.938,2855.752L643.055,2980.078c-30.221,2.224-54.794-21.415-54.794-52.806V1669.609
						c0-31.391,24.572-56.839,54.794-56.839h1688.883c24.898,0,45.029,23.004,45.029,51.382v1136.904
						C2376.967,2829.432,2356.836,2853.919,2331.938,2855.752z"/>
					<path style="fill:#FFFFFF;" d="M2358.867,2855.752L669.985,2980.078c-30.222,2.224-54.794-21.415-54.794-52.806V1669.609
						c0-31.391,24.572-56.839,54.794-56.839h1688.882c24.899,0,45.029,23.004,45.029,51.382v1136.904
						C2403.896,2829.432,2383.766,2853.919,2358.867,2855.752z"/>
					<path style="fill:#D8DEE8;" d="M2306.254,2775.598L733.236,2883.592c-24.594,1.688-44.579-17.714-44.579-43.341V1739.165
						c0-25.627,19.986-46.488,44.579-46.594l1573.017-6.781c20.539-0.089,37.153,18.762,37.153,42.104v1002.891
						C2343.406,2754.125,2326.793,2774.189,2306.254,2775.598z"/>
					<path style="fill:#FFFFFF;" d="M1574.073,1647.169c0,11.686-8.693,21.187-19.427,21.22
						c-10.748,0.034-19.469-9.433-19.469-21.145c0-11.712,8.722-21.213,19.469-21.221
						C1565.38,1626.016,1574.073,1635.483,1574.073,1647.169z"/>
					<path style="opacity:0.48;fill:#FFFFFF;" d="M669.979,2980.078l1680.338-123.697l8.551-0.629
						c11.424-0.841,21.812-6.488,29.746-15.055c-120.919-6.617-196.024-49.528-244.472-93.867
						c-97.294-89.043-80.418-176.852-185.339-235.396c-130.864-73.022-233.762,19.505-333.067-71.787
						c-60.203-55.348-30.646-96.621-104.727-179.331c-82.049-91.609-135.468-60.815-217.927-143.263
						c-104.262-104.25-52.117-185.36-141.927-260.208c-108.952-90.802-226.451-6.76-330.165-93.842
						c-44.733-37.559-69.279-92.163-82.095-150.234h-78.909c-30.222,0-54.794,25.448-54.794,56.84v1257.663
						C615.191,2958.66,639.758,2982.298,669.979,2980.078z"/>
				</g>
				
					<linearGradient id="SVGID_00000090986535098768503380000009462596392320944294_" gradientUnits="userSpaceOnUse" x1="652.5741" y1="2984.2583" x2="3309.8015" y2="2984.2583">
					<stop  offset="0.494" style="stop-color:#EBEFF2"/>
					<stop  offset="1" style="stop-color:#FFFFFF"/>
				</linearGradient>
				<path style="fill:url(#SVGID_00000090986535098768503380000009462596392320944294_);" d="M2438.44,2848.856L652.574,2979.72
					l778.671,138.686c8.917,1.588,17.96,2.01,26.958,1.256l1851.599-155.001l-842.953-114.916
					C2457.421,2848.46,2447.913,2848.162,2438.44,2848.856z"/>
				<polygon style="fill:#D8DEE8;" points="913.16,2980.846 2399.946,2870.274 2860.094,2932.499 1386.115,3050.695 				"/>
			</g>
			<path style="fill:#BFC8D6;" d="M1365.383,1915.923l7.447,38.145c-16.61,6.581-32.462,14.472-47.363,23.662l-25.444-29.216
				c-6.942-7.971-19.051-8.717-27.05-1.668l-50.076,44.132c-8.016,7.065-8.899,19.278-1.967,27.279l25.665,29.622
				c-11.037,13.87-20.898,28.669-29.436,44.247l-37.171-12.639c-10.023-3.408-20.984,2.063-24.484,12.223l-21.934,63.655
				c-3.515,10.197,1.774,21.25,11.818,24.681l37.298,12.745c-2.769,17.413-4.002,35.229-3.736,53.264l-39.021,7.958
				c-10.476,2.136-17.365,12.464-15.387,23.075l12.398,66.494c1.987,10.655,12.116,17.562,22.622,15.419l39.137-7.982
				c6.324,16.926,13.974,33.084,22.924,48.29l-30.093,26.748c-8.116,7.212-9.019,19.712-2.014,27.921l43.891,51.425
				c7.032,8.239,19.325,9.049,27.45,1.804l30.091-26.825c13.79,11.342,28.545,21.431,44.078,30.183l-12.95,38.485
				c-3.506,10.42,1.908,21.733,12.098,25.264l63.792,22.108c10.212,3.541,21.32-2.062,24.804-12.506l12.742-38.188
				c17.496,2.786,35.397,3.948,53.514,3.555l7.717,39.531c2.113,10.821,12.417,17.848,23.016,15.687l66.273-13.515
				c10.597-2.161,17.448-12.687,15.304-23.501l-7.77-39.194c16.986-6.672,33.166-14.734,48.368-24.128l25.815,29.794
				c7.167,8.273,19.536,9.087,27.621,1.815l50.508-45.417c8.067-7.254,8.784-19.818,1.606-28.059l-25.731-29.546
				c11.23-14.285,21.178-29.55,29.763-45.593l36.636,12.518c10.239,3.5,21.277-2.068,24.65-12.429l21.052-64.67
				c3.36-10.323-2.203-21.504-12.42-24.978l-36.286-12.338c2.598-17.826,3.57-36.042,2.993-54.449l37.427-7.632
				c10.506-2.143,17.242-12.488,15.045-23.101l-13.712-66.226c-2.188-10.568-12.454-17.398-22.93-15.261l-37.316,7.61
				c-6.688-17.033-14.708-33.255-24.047-48.461l28.343-25.269c7.97-7.104,8.672-19.379,1.57-27.411l-44.322-50.142
				c-7.074-8.003-19.259-8.754-27.219-1.679l-28.523,25.352c-13.973-11.121-28.87-21.005-44.535-29.502l12.113-36.302
				c3.37-10.102-2.064-21.026-12.134-24.403l-62.908-21.091c-10.049-3.369-20.941,2.068-24.332,12.146l-12.244,36.387
				c-17.313-2.562-35.006-3.563-52.905-3.015l-7.497-37.819c-2.064-10.406-12.156-17.121-22.543-15.003l-64.959,13.248
				C1370.124,1895.357,1363.35,1905.511,1365.383,1915.923z M1291.26,2277.566c-20.444-106.955,48.494-210.607,153.867-232.097
				c105.371-21.489,208.205,47.134,229.804,153.853c21.729,107.365-46.919,212.491-153.448,234.217
				C1414.953,2455.264,1311.828,2385.168,1291.26,2277.566z"/>
		</g>
		<g>
			<g>
				
					<linearGradient id="SVGID_00000098185384755487084150000010308532687393500057_" gradientUnits="userSpaceOnUse" x1="1217.2629" y1="2328.5769" x2="892.0867" y2="2949.0667">
					<stop  offset="0" style="stop-color:#AA80F9"/>
					<stop  offset="0.9964" style="stop-color:#6165D7"/>
				</linearGradient>
				<path style="fill:url(#SVGID_00000098185384755487084150000010308532687393500057_);" d="M857.24,3130.109
					c-37.92-3.008-86.433-13.546-132.997-43.988c-50.379-32.936-115.996-100.624-98.869-143.275
					c6.394-15.923,24.804-29.558,40.986-28.259c23.907,1.919,26.691,35.127,68.206,71.248c7.672,6.676,47.34,41.189,67.06,29.559
					c9.804-5.782,12.703-21.803,11.104-33.984c-4.675-35.615-48.159-41.084-89.962-79.639
					c-42.382-39.09-77.712-107.278-57.517-153.379c11.605-26.492,42.302-47.415,62.481-41.534
					c8.623,2.513,14.091,9.562,40.273,66.126c21.49,46.427,26.27,59.96,40.125,64.362c14.261,4.531,36.434-1.155,44.861-15.205
					c21.948-36.592-72.911-90.62-81.525-193.027c-3.86-45.892,8.555-113.909,50.113-128.488c28.094-9.856,68.12,5.197,82.589,30.971
					c13.044,23.235-2.802,40.716,7.149,92.912c3.019,15.839,9.233,48.433,22.347,50.143c15.396,2.007,32.62-39.552,36.601-49.674
					c29.972-76.199-4.396-115.383,23.865-152.374c22.037-28.844,69.988-40.43,107.975-25.86
					c33.24,12.749,59.832,45.902,61.608,80.26c1.807,34.958-27.594,69.757-86.397,139.357
					c-27.886,33.005-50.073,55.305-48.811,88.111c0.615,15.992,6.956,38.487,18.411,40.542
					c25.281,4.535,37.725-97.267,97.643-112.989c30.669-8.047,68.78,7.769,85.527,35.414c20.519,33.872,6.772,81.881-19.006,107.125
					c-33.634,32.938-68.126,7.906-131.412,43.286c-28.075,15.695-72.196,49.081-65.735,76.69
					c2.812,12.021,15.412,23.793,29.24,25.362c30.995,3.518,41.232-47.278,91.063-69.607c35.901-16.088,85.544-14.348,97.337,5.899
					c16.648,28.584-42.479,93.477-73.915,122.152C1119.656,3063.011,1030.033,3128.745,857.24,3130.109z"/>
				<path style="opacity:0.5;fill:#FFFFFF;" d="M874.268,3113.827c-5.011-84.958,51.262-258.009,92.204-339.818
					c40.063-80.051,78.386-206.692,78.768-207.962l2.495,0.752c-0.384,1.272-38.772,128.127-78.933,208.377
					c-40.815,81.555-96.92,253.966-91.934,338.498L874.268,3113.827z"/>
			</g>
			
				<linearGradient id="SVGID_00000128469516503883509400000017067218166035427476_" gradientUnits="userSpaceOnUse" x1="990.0128" y1="2795.4299" x2="616.7769" y2="3242.8628">
				<stop  offset="0.0036" style="stop-color:#E38DDD"/>
				<stop  offset="1" style="stop-color:#9571F6"/>
			</linearGradient>
			<path style="fill:url(#SVGID_00000128469516503883509400000017067218166035427476_);" d="M767.861,3141.187
				c-28.553-39.642-70.438-111.169-77.949-206.864c-3.095-39.431-9.14-116.447,37.975-182.88
				c23.483-33.112,73.282-82.082,106.93-67.956c21.651,9.089,35.091,43.663,28.981,69.954
				c-6.161,26.509-28.566,28.965-52.965,73.952c-9.029,16.646-19.343,36.187-11.419,47.226c6.618,9.219,24.799,10.897,38.43,5.368
				c28.158-11.421,19.359-46.478,49.8-71.623c21.646-17.88,57.729-26.285,73.3-11.64c13.52,12.716,11.165,42.421-0.782,62.222
				c-19.13,31.708-53.433,22.406-75.796,57.07c-9.921,15.378-16.974,38.606-8.291,47.79c9.894,10.465,39.012,1.415,57.674-10.153
				c24.639-15.273,25.549-31.524,41.775-33.562c18.099-2.272,40.727,14.964,44.265,34.033c4.956,26.707-27.81,55.512-53.756,68.026
				c-33.217,16.021-57.898,6.618-74.121,28.507c-5.954,8.033-11.409,21.145-6.526,29.102c6.966,11.352,32.143,7.604,48.859,5.116
				c40.684-6.056,51.886-20.81,66.463-13.642c14.76,7.258,22.372,31.771,15.99,48.968c-3.547,9.557-14.204,24.36-67.009,33.629
				C912.727,3160.317,850.63,3164.882,767.861,3141.187z"/>
		</g>
		<g>
			<g>
				
					<linearGradient id="SVGID_00000138531635432142411060000009759858622979395258_" gradientUnits="userSpaceOnUse" x1="1482.6143" y1="1612.2349" x2="3095.9641" y2="1612.2349">
					<stop  offset="0.0036" style="stop-color:#E38DDD"/>
					<stop  offset="1" style="stop-color:#9571F6"/>
				</linearGradient>
				<path style="fill:url(#SVGID_00000138531635432142411060000009759858622979395258_);" d="M2989.256,552.864l-1386.705-36.639
					c-66.104-1.747-119.937,47.487-119.937,109.974V2601.74c0,62.487,53.832,110.09,119.937,106.342l1386.705-78.631
					c59.047-3.348,106.708-53.621,106.708-112.302V661.935C3095.964,603.254,3048.303,554.424,2989.256,552.864z"/>
				<path style="opacity:0.74;fill:#FFFFFF;" d="M1602.551,2672.119c-44.889,2.484-81.522-29.988-81.522-72.393V627.051
					c0-42.405,36.633-75.986,81.522-74.862l1386.705,34.747c40.158,1.006,72.735,34.312,72.735,74.246V2518.93
					c0,39.935-32.577,74.226-72.735,76.449L1602.551,2672.119z"/>
				
					<linearGradient id="SVGID_00000134249312117316092510000009222120640277952951_" gradientUnits="userSpaceOnUse" x1="2298.0872" y1="599.6866" x2="2157.4421" y2="1870.907">
					<stop  offset="0" style="stop-color:#40447E"/>
					<stop  offset="0.9964" style="stop-color:#3C3B6B"/>
				</linearGradient>
				<path style="fill:url(#SVGID_00000134249312117316092510000009222120640277952951_);" d="M2989.256,552.864l-1386.705-36.639
					c-66.104-1.746-119.937,47.487-119.937,109.974v81.162l1613.35,30.792v-76.219
					C3095.965,603.254,3048.303,554.424,2989.256,552.864z"/>
				<path style="fill:#FFFFFF;" d="M1695.806,620.049c0,20.287-17.383,36.364-38.857,35.91
					c-21.51-0.455-38.972-17.319-38.972-37.666c0-20.347,17.463-36.422,38.972-35.907
					C1678.423,582.9,1695.806,599.762,1695.806,620.049z"/>
				<path style="fill:#FFFFFF;" d="M1831.375,623.107c0,20.182-17.204,36.178-38.457,35.729
					c-21.288-0.451-38.57-17.225-38.57-37.467c0-20.241,17.282-36.236,38.57-35.726
					C1814.171,586.153,1831.375,602.926,1831.375,623.107z"/>
				<path style="fill:#FFFFFF;" d="M1965.552,626.135c0,20.078-17.028,35.995-38.063,35.549
					c-21.069-0.446-38.174-17.132-38.174-37.27s17.105-36.052,38.174-35.547C1948.525,589.372,1965.552,606.057,1965.552,626.135z"
					/>
				
					<linearGradient id="SVGID_00000091017335216149076820000011956063273142182275_" gradientUnits="userSpaceOnUse" x1="1622.408" y1="1626.4871" x2="2971.407" y2="1626.4871">
					<stop  offset="0.0036" style="stop-color:#E38DDD"/>
					<stop  offset="1" style="stop-color:#9571F6"/>
				</linearGradient>
				<polygon style="fill:url(#SVGID_00000091017335216149076820000011956063273142182275_);" points="2971.407,2152.211 
					1622.408,2202.897 1622.408,1050.077 2971.407,1058.414 				"/>
				<polygon style="opacity:0.42;fill:#FFFFFF;" points="2971.407,2280.499 1622.408,2338.107 1622.408,2280.609 2971.407,2225.945 
									"/>
				<polygon style="opacity:0.42;fill:#FFFFFF;" points="2971.407,2414.327 1622.408,2479.157 1622.408,2421.659 2971.407,2359.773 
									"/>
				<g style="opacity:0.42;">
					<polygon style="fill:#FFFFFF;" points="2660.276,926.607 1622.409,914.867 1622.409,972.365 2660.276,981.84 					"/>
					<polygon style="fill:#FFFFFF;" points="2857.245,928.835 2857.245,983.638 2971.407,984.68 2971.407,930.126 					"/>
				</g>
				<g style="opacity:0.15;">
					<path style="fill:#FFFFFF;" d="M2626.929,1720.091c-222.438-265.896-502.27-276.781-658.481-561.37
						c-113.249-206.319-97.176-439.243-46.904-634.067l-318.994-8.428c-66.104-1.747-119.935,47.487-119.935,109.974V2601.74
						c0,62.487,53.831,110.09,119.935,106.342l1247.742-70.751C2888.427,2141.093,2755.8,1874.139,2626.929,1720.091z"/>
				</g>
			</g>
			<g>
				<path style="fill:#FFFFFF;" d="M2523.172,1117.745l-420.535-1.573c-38.854-0.145-70.437,30.061-70.437,67.469v114.645
					c0,37.408,31.583,67.546,70.437,67.317l420.535-2.482c37.49-0.221,67.8-30.071,67.8-66.673v-112.176
					C2590.972,1147.67,2560.662,1117.886,2523.172,1117.745z"/>
				<g>
					<path style="fill:#FFFFFF;" d="M2036.902,1538.569l-302.112,3.794c-20.619,0.259-37.359,16.328-37.359,35.892v130.817
						c0,19.563,16.74,35.084,37.359,34.667l302.112-6.113c20.115-0.407,36.401-16.369,36.401-35.652v-128.946
						C2073.302,1553.744,2057.017,1538.316,2036.902,1538.569z"/>
					<path style="fill:#FFFFFF;" d="M2459.934,1533.257l-292.279,3.67c-19.946,0.25-36.138,16.051-36.138,35.291v128.656
						c0,19.24,16.192,34.51,36.138,34.106l292.279-5.914c19.467-0.394,35.226-16.09,35.226-35.06v-126.845
						C2495.159,1548.192,2479.4,1533.012,2459.934,1533.257z"/>
					<path style="fill:#FFFFFF;" d="M2869.388,1528.115l-282.92,3.553c-19.304,0.242-34.974,15.783-34.974,34.71v126.565
						c0,18.927,15.67,33.954,34.974,33.563l282.92-5.724c18.847-0.381,34.105-15.821,34.105-34.486v-124.812
						C2903.493,1542.818,2888.235,1527.878,2869.388,1528.115z"/>
				</g>
				<g>
					<polygon style="fill:#FFFFFF;" points="2321.225,1516.402 2308.027,1516.559 2308.027,1380.035 2321.225,1379.949 					"/>
					<path style="fill:#FFFFFF;" d="M1893.54,1521.463l-13.642,0.161v-35.147c0-18.919,16.134-34.459,35.939-34.64l295.77-2.712
						c12.001-0.11,21.756-9.624,21.756-21.209v-47.395l13.275-0.086v47.37c0,18.653-15.702,33.98-35.031,34.167l-295.77,2.86
						c-12.29,0.119-22.297,9.765-22.297,21.502V1521.463z"/>
					<path style="fill:#FFFFFF;" d="M2735.106,1511.505l-12.775,0.151v-34.012c0-11.365-9.388-20.52-20.937-20.408l-284.567,2.751
						c-19.05,0.184-34.569-14.762-34.569-33.316v-47.121l13.122-0.085v47.096c0,11.512,9.625,20.789,21.447,20.681l284.567-2.609
						c18.601-0.171,33.712,14.578,33.712,32.877V1511.505z"/>
				</g>
				<g>
					<path style="fill:#FFFFFF;" d="M2036.902,1917.394l-302.112,8.207c-20.619,0.56-37.359,16.874-37.359,36.437v130.818
						c0,19.563,16.74,34.839,37.359,34.121l302.112-10.525c20.115-0.701,36.401-16.901,36.401-36.184V1951.32
						C2073.302,1932.037,2057.017,1916.847,2036.902,1917.394z"/>
					<path style="fill:#FFFFFF;" d="M2459.934,1905.902l-292.279,7.94c-19.946,0.542-36.138,16.579-36.138,35.819v128.656
						c0,19.24,16.192,34.273,36.138,33.578l292.279-10.183c19.467-0.678,35.226-16.605,35.226-35.574v-126.845
						C2495.159,1920.323,2479.4,1905.373,2459.934,1905.902z"/>
					<path style="fill:#FFFFFF;" d="M2869.388,1894.779l-282.92,7.685c-19.304,0.524-34.974,16.294-34.974,35.221v126.565
						c0,18.927,15.67,33.725,34.974,33.052l282.92-9.857c18.847-0.657,34.105-16.32,34.105-34.985v-124.812
						C2903.493,1908.984,2888.235,1894.267,2869.388,1894.779z"/>
				</g>
				<g>
					<polygon style="fill:#FFFFFF;" points="2321.225,1891.074 2308.027,1891.423 2308.027,1754.899 2321.225,1754.62 					"/>
					<path style="fill:#FFFFFF;" d="M1893.54,1902.382l-13.642,0.361v-35.147c0-18.918,16.134-34.694,35.939-35.165l295.77-7.033
						c12.001-0.285,21.756-9.942,21.756-21.527v-47.395l13.275-0.28v47.37c0,18.653-15.702,34.21-35.031,34.679l-295.77,7.18
						c-12.29,0.298-22.297,10.09-22.297,21.828V1902.382z"/>
					<path style="fill:#FFFFFF;" d="M2735.106,1880.131l-12.775,0.338v-34.012c0-11.365-9.388-20.382-20.937-20.102l-284.567,6.908
						c-19.05,0.462-34.569-14.257-34.569-32.811v-47.12l13.122-0.277v47.096c0,11.512,9.625,20.648,21.447,20.367l284.567-6.766
						c18.601-0.442,33.712,14.086,33.712,32.384V1880.131z"/>
				</g>
			</g>
		</g>
	</g>
</g>
</svg>
