<svg xmlns="http://www.w3.org/2000/svg" xmlns:xlink="http://www.w3.org/1999/xlink" width="940" zoomAndPan="magnify" viewBox="0 0 705 591.000005" height="788" preserveAspectRatio="xMidYMid meet" version="1.0"><defs><clipPath id="d087cfd1db"><path d="M 0.59375 0 L 704.402344 0 L 704.402344 590 L 0.59375 590 Z M 0.59375 0 " clip-rule="nonzero"/></clipPath></defs><g clip-path="url(#d087cfd1db)"><path fill="#ffffff" d="M 0.59375 0 L 704.40625 0 L 704.40625 590 L 0.59375 590 Z M 0.59375 0 " fill-opacity="1" fill-rule="nonzero"/><path fill="#ffffff" d="M 0.59375 0 L 704.40625 0 L 704.40625 590 L 0.59375 590 Z M 0.59375 0 " fill-opacity="1" fill-rule="nonzero"/></g><path fill="#003448" d="M 88.839844 388.402344 L 92.40625 371.765625 L 138.839844 371.765625 C 140.351562 371.765625 141.539062 371.441406 142.296875 370.902344 C 143.050781 370.363281 143.59375 369.171875 143.914062 367.660156 L 146.507812 355.886719 C 146.617188 355.5625 146.617188 355.128906 146.617188 354.480469 C 146.617188 352.96875 145.535156 352.210938 143.269531 352.210938 L 108.925781 352.210938 C 105.363281 352.210938 102.878906 351.457031 101.257812 350.050781 C 99.640625 348.539062 98.882812 346.488281 98.882812 343.785156 C 98.882812 342.8125 98.992188 341.515625 99.316406 340.113281 L 104.066406 318.074219 C 105.148438 312.996094 107.089844 309.324219 109.683594 306.839844 C 112.382812 304.460938 116.488281 303.167969 122.210938 303.167969 L 341.863281 303.167969 L 338.40625 319.371094 L 126.746094 319.371094 C 125.339844 319.371094 124.371094 319.695312 123.828125 320.234375 C 123.183594 320.773438 122.75 321.855469 122.425781 323.367188 L 119.941406 334.601562 C 119.835938 334.925781 119.835938 335.25 119.726562 335.46875 C 119.726562 335.683594 119.617188 336.007812 119.617188 336.222656 C 119.617188 337.519531 120.589844 338.058594 122.425781 338.058594 L 157.308594 338.058594 C 160.871094 338.058594 163.460938 338.816406 165.082031 340.328125 C 166.703125 341.839844 167.457031 343.894531 167.457031 346.59375 C 167.457031 347.675781 167.351562 348.863281 167.027344 350.160156 L 162.058594 373.386719 C 160.976562 378.464844 159.035156 382.136719 156.441406 384.511719 C 153.742188 386.890625 149.640625 388.1875 144.132812 388.1875 L 88.839844 388.1875 Z M 183.871094 388.402344 C 180.308594 388.402344 177.71875 387.753906 176.097656 386.566406 C 174.476562 385.378906 173.722656 383.433594 173.722656 380.839844 C 173.722656 379.652344 173.9375 378.03125 174.371094 375.980469 L 182.683594 337.304688 C 183.65625 332.984375 185.167969 329.851562 187.4375 327.90625 C 189.597656 325.851562 193.050781 324.878906 197.695312 324.878906 L 241.972656 324.878906 C 245.75 324.878906 248.449219 325.527344 249.960938 326.71875 C 251.472656 327.90625 252.230469 329.851562 252.230469 332.441406 C 252.230469 333.628906 252.015625 335.25 251.582031 337.304688 L 243.265625 375.980469 C 242.296875 380.300781 240.785156 383.433594 238.515625 385.378906 C 236.355469 387.429688 232.898438 388.402344 228.148438 388.402344 Z M 232.144531 343.570312 C 232.359375 342.707031 232.359375 342.273438 232.359375 342.058594 C 232.359375 340.761719 231.171875 340.003906 228.90625 340.003906 L 203.417969 340.003906 C 202.015625 340.003906 201.042969 340.222656 200.503906 340.652344 C 199.964844 341.085938 199.53125 342.058594 199.316406 343.460938 L 193.808594 369.390625 C 193.699219 369.714844 193.699219 370.039062 193.589844 370.253906 C 193.589844 370.46875 193.484375 370.792969 193.484375 371.007812 C 193.484375 372.199219 194.457031 372.738281 196.292969 372.738281 L 221.777344 372.738281 C 223.289062 372.738281 224.476562 372.523438 225.125 371.980469 C 225.773438 371.441406 226.3125 370.578125 226.527344 369.390625 Z M 305.039062 388.402344 L 306.441406 381.597656 C 304.820312 383.972656 302.984375 385.808594 300.933594 386.78125 C 298.882812 387.863281 296.507812 388.402344 293.808594 388.402344 L 265.511719 388.402344 C 262.058594 388.402344 259.574219 387.863281 257.847656 386.675781 C 256.226562 385.484375 255.363281 383.542969 255.363281 380.730469 C 255.363281 379.4375 255.578125 377.921875 256.011719 375.980469 L 267.023438 324.878906 L 285.058594 324.878906 L 275.230469 369.714844 C 275.015625 370.578125 275.015625 371.117188 275.015625 371.332031 C 275.015625 372.628906 276.097656 373.386719 278.148438 373.386719 L 303.957031 373.386719 C 305.363281 373.386719 306.332031 373.171875 306.875 372.628906 C 307.523438 372.089844 307.953125 371.117188 308.277344 369.714844 L 318.105469 324.878906 L 336.140625 324.878906 L 322.425781 388.511719 L 305.039062 388.511719 Z M 336.03125 388.402344 L 354.390625 302.625 L 372.421875 302.625 L 354.066406 388.402344 Z M 336.03125 388.402344 " fill-opacity="1" fill-rule="evenodd"/><path fill="#003448" d="M 370.589844 388.402344 L 374.152344 371.765625 L 419.507812 371.765625 C 421.019531 371.765625 422.097656 371.441406 422.855469 370.902344 C 423.609375 370.363281 424.042969 369.171875 424.476562 367.660156 L 426.957031 355.886719 C 427.066406 355.5625 427.066406 355.128906 427.066406 354.480469 C 427.066406 352.96875 425.988281 352.210938 423.828125 352.210938 L 390.242188 352.210938 C 386.785156 352.210938 384.304688 351.457031 382.789062 350.050781 C 381.277344 348.539062 380.414062 346.488281 380.414062 343.785156 C 380.414062 342.8125 380.523438 341.515625 380.738281 340.113281 L 385.382812 318.074219 C 386.460938 312.996094 388.296875 309.324219 390.890625 306.839844 C 393.480469 304.460938 397.585938 303.167969 403.09375 303.167969 L 456.007812 303.167969 L 452.660156 319.371094 L 407.519531 319.371094 C 406.226562 319.371094 405.253906 319.695312 404.605469 320.234375 C 404.066406 320.773438 403.523438 321.855469 403.199219 323.367188 L 400.824219 334.601562 C 400.71875 334.925781 400.71875 335.25 400.609375 335.46875 C 400.609375 335.683594 400.5 336.007812 400.5 336.222656 C 400.5 337.519531 401.472656 338.058594 403.308594 338.058594 L 437.324219 338.058594 C 440.890625 338.058594 443.375 338.816406 444.886719 340.328125 C 446.398438 341.839844 447.261719 343.894531 447.261719 346.59375 C 447.261719 347.675781 447.152344 348.863281 446.828125 350.160156 L 441.96875 373.386719 C 440.890625 378.464844 439.054688 382.136719 436.460938 384.511719 C 433.871094 387 429.875 388.1875 424.367188 388.1875 L 370.589844 388.1875 Z M 490.996094 350.484375 L 489.269531 348.539062 C 488.511719 347.78125 487.324219 346.378906 486.679688 345.621094 C 486.355469 345.296875 486.03125 344.867188 485.707031 344.648438 C 485.382812 345.082031 482.035156 347.890625 481.386719 348.539062 C 481.171875 348.753906 480.953125 348.972656 480.738281 349.1875 C 479.226562 350.589844 477.175781 352.429688 475.664062 353.617188 C 472.53125 356.210938 472.097656 360.207031 472.746094 363.664062 L 473.285156 365.5 C 473.394531 365.824219 473.503906 366.039062 473.71875 366.363281 L 474.582031 367.984375 C 475.015625 368.742188 475.769531 369.714844 476.3125 370.253906 C 478.144531 372.199219 479.980469 374.035156 483.222656 374.898438 C 486.355469 375.761719 489.484375 375.332031 491.320312 374.140625 C 492.726562 373.277344 495.855469 370.363281 497.152344 369.171875 L 501.472656 365.285156 C 502.011719 364.851562 502.550781 364.417969 502.875 363.988281 C 501.257812 362.367188 499.851562 360.53125 498.339844 358.910156 C 494.992188 355.019531 492.292969 351.886719 490.996094 350.484375 Z M 495.640625 352.753906 C 495.964844 352.535156 496.9375 351.78125 497.042969 351.238281 C 497.367188 350.375 497.691406 349.835938 498.234375 349.1875 C 499.097656 348 500.285156 347.027344 501.257812 346.269531 C 502.335938 345.515625 503.417969 344.542969 504.820312 344.324219 C 505.253906 344.21875 506.117188 343.460938 506.441406 343.03125 C 506.980469 342.488281 507.519531 342.058594 508.058594 341.625 C 507.84375 341.191406 506.441406 340.003906 505.898438 339.574219 C 503.308594 337.734375 499.097656 336.765625 496.074219 337.628906 C 494.019531 338.167969 493.265625 338.492188 491.539062 339.574219 L 487.648438 342.921875 C 487.324219 343.246094 487 343.570312 486.570312 343.894531 L 490.457031 348.324219 C 491.429688 349.511719 493.804688 352.429688 494.992188 353.402344 C 495.210938 353.078125 495.425781 352.859375 495.640625 352.753906 Z M 502.335938 361.609375 C 502.660156 362.042969 503.523438 363.125 503.957031 363.339844 L 508.277344 359.449219 C 511.40625 356.535156 512.703125 351.457031 511.515625 347.242188 C 511.40625 346.703125 511.300781 346.378906 511.082031 345.945312 C 510.867188 345.40625 510.757812 345.082031 510.542969 344.648438 C 510.113281 344 509.464844 342.921875 508.816406 342.273438 L 507.304688 343.570312 C 506.980469 343.894531 505.898438 344.757812 505.792969 345.082031 C 505.144531 346.8125 504.28125 347.566406 503.199219 348.753906 L 501.6875 350.050781 C 498.773438 352.429688 498.125 351.78125 497.585938 352.210938 L 496.398438 353.292969 C 494.992188 354.046875 501.90625 361.070312 502.335938 361.609375 Z M 586.675781 388.402344 C 583.113281 388.402344 580.628906 387.753906 579.117188 386.566406 C 577.605469 385.378906 576.851562 383.433594 576.851562 380.839844 C 576.851562 379.652344 577.066406 378.03125 577.496094 375.980469 L 592.078125 307.164062 L 609.679688 307.164062 L 605.898438 324.878906 L 621.234375 324.878906 L 618.316406 338.707031 L 602.984375 338.707031 L 596.070312 371.226562 C 595.855469 372.089844 595.855469 372.628906 595.855469 372.847656 C 595.855469 374.035156 596.828125 374.574219 598.664062 374.574219 L 610.21875 374.574219 L 607.304688 388.402344 Z M 531.386719 388.402344 L 547.367188 312.78125 C 548.554688 307.378906 550.285156 303.707031 552.660156 301.4375 C 555.035156 299.277344 558.277344 298.195312 562.378906 298.195312 L 584.191406 298.195312 L 581.277344 311.917969 L 568.101562 311.917969 C 566.050781 311.917969 564.753906 312.996094 564.324219 315.15625 L 562.269531 324.878906 L 577.929688 324.878906 L 575.015625 338.707031 L 559.355469 338.707031 L 548.773438 388.511719 L 531.386719 388.511719 Z M 463.351562 388.402344 C 459.789062 388.402344 457.304688 387.753906 455.792969 386.566406 C 454.28125 385.378906 453.417969 383.433594 453.417969 380.839844 C 453.417969 379.652344 453.632812 378.03125 454.066406 375.980469 L 462.273438 337.304688 C 463.242188 332.984375 464.753906 329.851562 466.808594 327.90625 C 468.96875 325.851562 472.316406 324.878906 476.742188 324.878906 L 519.9375 324.878906 C 523.609375 324.878906 526.203125 325.527344 527.714844 326.71875 C 529.226562 327.90625 529.980469 329.851562 529.980469 332.441406 C 529.980469 333.628906 529.765625 335.25 529.335938 337.304688 L 521.125 375.980469 C 520.15625 380.300781 518.644531 383.433594 516.589844 385.378906 C 514.429688 387.429688 511.082031 388.402344 506.441406 388.402344 Z M 463.351562 388.402344 " fill-opacity="1" fill-rule="evenodd"/><path fill="#6f7f86" d="M 80.417969 424.484375 L 87.003906 397.910156 L 94.023438 397.910156 L 87.4375 424.484375 Z M 159.464844 424.484375 L 147.695312 406.984375 L 143.375 424.484375 L 136.898438 424.484375 L 143.484375 397.910156 L 150.070312 397.910156 L 160.222656 413.789062 L 164.109375 397.910156 L 170.589844 397.910156 L 164.003906 424.484375 Z M 223.289062 413.898438 L 220.695312 424.484375 L 213.460938 424.484375 L 218.320312 405.039062 L 225.558594 405.039062 L 224.476562 409.46875 L 236.140625 409.46875 L 235.058594 413.898438 Z M 218.753906 403.09375 L 220.050781 397.910156 L 243.050781 397.910156 L 241.753906 403.09375 Z M 290.027344 424.484375 C 288.515625 424.484375 287.328125 424.269531 286.679688 423.730469 C 286.03125 423.296875 285.597656 422.539062 285.597656 421.566406 C 285.597656 421.027344 285.707031 420.488281 285.921875 419.839844 L 290.242188 402.554688 C 290.675781 400.933594 291.324219 399.855469 292.292969 399.097656 C 293.265625 398.339844 294.671875 397.910156 296.722656 397.910156 L 312.164062 397.910156 C 313.675781 397.910156 314.863281 398.125 315.511719 398.664062 C 316.160156 399.097656 316.484375 399.855469 316.484375 400.824219 C 316.484375 401.042969 316.484375 401.367188 316.375 401.691406 C 316.375 402.015625 316.269531 402.230469 316.160156 402.554688 L 311.839844 419.839844 C 311.410156 421.460938 310.761719 422.539062 309.789062 423.296875 C 308.816406 424.050781 307.414062 424.484375 305.363281 424.484375 Z M 308.710938 404.605469 C 308.710938 404.5 308.816406 404.390625 308.816406 404.28125 C 308.816406 404.175781 308.816406 404.066406 308.816406 403.960938 C 308.816406 403.3125 308.277344 403.09375 307.199219 403.09375 L 298.558594 403.09375 C 297.910156 403.09375 297.476562 403.203125 297.261719 403.417969 C 297.046875 403.636719 296.832031 404.066406 296.613281 404.605469 L 293.265625 417.894531 C 293.160156 418.109375 293.160156 418.328125 293.160156 418.433594 C 293.160156 418.976562 293.589844 419.300781 294.453125 419.300781 L 303.09375 419.300781 C 303.851562 419.300781 304.390625 419.191406 304.605469 418.976562 C 304.929688 418.757812 305.144531 418.433594 305.253906 418.003906 Z M 372.964844 424.484375 L 365.945312 424.484375 L 371.234375 403.09375 L 363.675781 403.09375 L 364.972656 397.910156 L 387.109375 397.910156 L 385.816406 403.09375 L 378.253906 403.09375 Z M 428.363281 424.484375 L 433.222656 405.039062 L 440.457031 405.039062 L 439.378906 409.359375 L 450.824219 409.359375 L 449.746094 413.574219 L 438.296875 413.574219 L 436.785156 419.191406 L 452.660156 419.191406 L 451.363281 424.484375 Z M 433.65625 403.09375 L 434.949219 397.910156 L 458.058594 397.910156 L 456.765625 403.09375 Z M 505.792969 424.484375 C 504.28125 424.484375 503.09375 424.269531 502.445312 423.730469 C 501.796875 423.296875 501.472656 422.539062 501.472656 421.566406 C 501.472656 421.351562 501.472656 421.027344 501.472656 420.8125 C 501.472656 420.488281 501.582031 420.273438 501.6875 419.839844 L 506.007812 402.554688 C 506.441406 400.933594 507.089844 399.855469 508.058594 399.097656 C 509.03125 398.339844 510.4375 397.910156 512.488281 397.910156 L 529.980469 397.910156 L 528.6875 403.203125 L 514.648438 403.203125 C 513.890625 403.203125 513.460938 403.3125 513.136719 403.527344 C 512.917969 403.742188 512.703125 404.175781 512.488281 404.714844 L 509.246094 417.679688 C 509.246094 417.785156 509.246094 417.894531 509.140625 418.003906 C 509.140625 418.109375 509.140625 418.21875 509.140625 418.328125 C 509.140625 418.652344 509.246094 418.867188 509.464844 418.976562 C 509.679688 419.082031 510.113281 419.191406 510.652344 419.191406 L 524.796875 419.191406 L 523.503906 424.59375 L 505.792969 424.59375 Z M 598.015625 424.484375 L 590.996094 424.484375 L 593.695312 413.464844 L 581.492188 413.464844 L 578.792969 424.484375 L 571.773438 424.484375 L 578.363281 397.910156 L 585.382812 397.910156 L 582.789062 408.496094 L 594.992188 408.496094 L 597.582031 397.910156 L 604.601562 397.910156 Z M 598.015625 424.484375 " fill-opacity="1" fill-rule="evenodd"/><path fill="#0073a8" d="M 511.40625 269.460938 L 508.707031 282.425781 C 511.949219 283.71875 520.046875 289.554688 523.070312 292.253906 C 524.367188 293.441406 525.230469 294.632812 526.308594 295.605469 C 536.785156 283.074219 543.15625 266.976562 543.371094 249.476562 L 513.566406 249.796875 C 512.488281 254.660156 512.378906 263.625 511.40625 269.460938 Z M 511.40625 269.460938 " fill-opacity="1" fill-rule="evenodd"/><path fill="#0073a8" d="M 496.613281 300.679688 C 499.527344 295.0625 502.769531 287.824219 502.984375 284.367188 C 492.183594 280.261719 487.972656 277.671875 474.796875 277.128906 L 474.796875 289.878906 C 482.140625 293.984375 489.484375 297.65625 496.613281 300.679688 Z M 496.613281 300.679688 " fill-opacity="1" fill-rule="evenodd"/><path fill="#0073a8" d="M 475.121094 250.230469 C 475.121094 250.230469 475.015625 250.339844 475.015625 250.445312 L 474.90625 272.59375 C 482.464844 272.808594 490.78125 274.644531 497.800781 277.238281 C 500.070312 278.101562 502.445312 279.292969 504.605469 280.046875 C 505.46875 274.320312 510.003906 256.390625 508.707031 249.90625 Z M 475.121094 250.230469 " fill-opacity="1" fill-rule="evenodd"/><path fill="#0073a8" d="M 523.394531 298.84375 C 520.261719 295.386719 511.730469 288.691406 507.410156 286.746094 L 503.742188 296.359375 C 502.875 298.519531 502.011719 300.464844 501.039062 302.410156 C 505.683594 304.246094 510.21875 305.652344 514.539062 306.839844 C 517.777344 304.460938 520.695312 301.761719 523.394531 298.84375 Z M 491.859375 317.425781 C 492.402344 317.640625 492.832031 317.964844 493.375 318.183594 L 493.589844 318.074219 C 493.050781 317.859375 492.507812 317.640625 491.859375 317.425781 Z M 491.859375 317.425781 " fill-opacity="1" fill-rule="evenodd"/><path fill="#0073a8" d="M 420.695312 250.878906 L 432.035156 250.769531 C 432.574219 253.578125 432.789062 257.578125 433.113281 261.683594 C 428.6875 258.117188 424.582031 254.445312 420.695312 250.878906 Z M 420.695312 250.878906 " fill-opacity="1" fill-rule="evenodd"/><path fill="#0073a8" d="M 457.304688 279.292969 C 460.867188 278.320312 464.863281 277.5625 470.480469 277.238281 L 470.371094 287.5 C 465.945312 284.800781 461.625 282.101562 457.304688 279.292969 Z M 457.304688 279.292969 " fill-opacity="1" fill-rule="evenodd"/><path fill="#0073a8" d="M 470.480469 250.339844 C 470.480469 250.339844 470.585938 250.445312 470.585938 250.554688 L 470.480469 272.703125 C 464.539062 273.027344 458.277344 274.320312 452.445312 276.160156 C 447.476562 272.703125 442.507812 269.136719 437.867188 265.570312 C 436.894531 259.738281 436.246094 254.011719 436.894531 250.769531 Z M 470.480469 250.339844 " fill-opacity="1" fill-rule="evenodd"/><path fill="#0073a8" d="M 511.730469 225.707031 L 509.140625 212.851562 C 512.378906 211.554688 520.585938 205.507812 523.609375 202.699219 C 524.90625 201.507812 525.769531 200.210938 526.957031 199.242188 C 537.324219 211.554688 543.480469 227.4375 543.371094 244.9375 L 513.566406 245.261719 C 512.59375 240.398438 512.59375 231.542969 511.730469 225.707031 Z M 511.730469 225.707031 " fill-opacity="1" fill-rule="evenodd"/><path fill="#0073a8" d="M 476.09375 174.175781 C 482.789062 175.691406 486.460938 179.253906 490.242188 183.792969 C 491.539062 185.304688 492.402344 186.601562 493.589844 188.4375 C 495.964844 192.003906 503.09375 205.832031 503.417969 210.90625 C 492.617188 215.230469 488.296875 217.929688 475.121094 218.792969 L 475.445312 174.070312 C 475.769531 174.175781 475.878906 174.175781 476.09375 174.175781 Z M 476.09375 174.175781 " fill-opacity="1" fill-rule="evenodd"/><path fill="#0073a8" d="M 475.121094 245.800781 C 475.121094 245.800781 475.015625 245.695312 475.015625 245.585938 L 475.121094 223.4375 C 482.789062 223.007812 490.996094 221.0625 498.015625 218.253906 C 500.285156 217.28125 502.769531 216.09375 504.929688 215.335938 C 505.792969 221.0625 510.003906 238.886719 508.707031 245.371094 Z M 475.121094 245.800781 " fill-opacity="1" fill-rule="evenodd"/><path fill="#0073a8" d="M 524.042969 196 C 520.910156 199.5625 512.269531 206.371094 507.953125 208.53125 L 504.386719 199.023438 C 503.09375 195.890625 501.90625 193.082031 500.285156 190.273438 C 498.664062 187.355469 497.042969 184.765625 495.101562 182.28125 C 494.128906 180.984375 493.265625 180.011719 492.183594 178.714844 C 491.320312 177.632812 490.242188 176.984375 489.484375 176.011719 C 502.984375 179.363281 514.863281 186.382812 524.042969 196 Z M 524.042969 196 " fill-opacity="1" fill-rule="evenodd"/><path fill="#0073a8" d="M 434.195312 226.570312 L 436.894531 213.609375 C 433.761719 212.3125 425.554688 206.476562 422.53125 203.777344 C 421.234375 202.589844 420.371094 201.402344 419.292969 200.429688 C 411.730469 209.503906 406.332031 220.414062 403.847656 232.296875 C 407.195312 236.726562 411.300781 241.480469 416.160156 246.339844 L 432.140625 246.125 C 433.113281 241.371094 433.222656 232.515625 434.195312 226.570312 Z M 434.195312 226.570312 " fill-opacity="1" fill-rule="evenodd"/><path fill="#0073a8" d="M 470.480469 174.285156 C 463.785156 175.90625 460.113281 179.6875 456.222656 184.222656 C 454.929688 185.84375 454.066406 187.03125 452.769531 188.976562 C 450.285156 192.542969 443.050781 206.585938 442.726562 211.664062 C 453.523438 215.769531 457.734375 218.363281 470.910156 218.902344 L 471.128906 174.175781 C 470.804688 174.285156 470.585938 174.285156 470.480469 174.285156 Z M 470.480469 174.285156 " fill-opacity="1" fill-rule="evenodd"/><path fill="#0073a8" d="M 470.585938 245.800781 C 470.585938 245.800781 470.695312 245.695312 470.695312 245.585938 L 470.804688 223.4375 C 463.242188 223.222656 454.929688 221.386719 447.910156 218.792969 C 445.640625 217.929688 443.265625 216.742188 441.105469 215.984375 C 440.242188 221.710938 435.707031 239.644531 437.003906 246.125 Z M 470.585938 245.800781 " fill-opacity="1" fill-rule="evenodd"/><path fill="#0073a8" d="M 422.207031 197.1875 C 425.339844 200.644531 433.871094 207.34375 438.191406 209.289062 L 441.863281 199.671875 C 443.15625 196.539062 444.453125 193.730469 446.074219 190.8125 C 447.800781 187.789062 449.421875 185.195312 451.257812 182.710938 C 452.230469 181.414062 453.199219 180.335938 454.171875 179.148438 C 455.035156 178.066406 456.117188 177.417969 456.980469 176.445312 C 443.480469 180.011719 431.496094 187.355469 422.207031 197.1875 Z M 422.207031 197.1875 " fill-opacity="1" fill-rule="evenodd"/><path fill="#f07c00" d="M 402.011719 236.835938 C 397.261719 228.839844 391.753906 217.390625 394.238281 207.449219 C 397.046875 196.429688 405.035156 195.136719 417.5625 192.328125 C 408.492188 188.113281 388.191406 190.597656 381.171875 199.457031 C 348.34375 241.265625 471.34375 330.390625 524.257812 325.746094 C 551.363281 323.367188 552.550781 302.085938 543.265625 282.425781 C 540.78125 277.128906 540.132812 277.886719 539.699219 277.453125 C 552.984375 354.371094 426.203125 277.5625 402.011719 236.835938 Z M 402.011719 236.835938 " fill-opacity="1" fill-rule="evenodd"/><path fill="#475256" d="M 127.285156 282.75 L 126.3125 284.367188 C 125.664062 284.152344 125.125 284.042969 124.585938 284.042969 C 122.964844 284.042969 121.453125 284.585938 120.15625 285.773438 C 118.753906 286.960938 117.78125 288.257812 117.242188 289.878906 C 116.808594 291.175781 116.808594 292.363281 117.242188 293.226562 C 117.675781 294.089844 118.644531 294.632812 120.15625 294.632812 C 120.804688 294.632812 121.667969 294.523438 122.75 294.199219 L 121.992188 295.710938 C 120.804688 295.929688 119.835938 296.035156 119.292969 296.035156 C 117.351562 296.035156 116.054688 295.496094 115.40625 294.308594 C 114.867188 293.121094 114.867188 291.714844 115.40625 290.09375 C 116.164062 287.933594 117.566406 286.207031 119.511719 284.691406 C 121.453125 283.289062 123.503906 282.53125 125.664062 282.53125 C 126.207031 282.425781 126.746094 282.53125 127.285156 282.75 Z M 136.03125 285.988281 C 134.195312 289.664062 133.117188 292.148438 132.683594 293.441406 C 132.46875 294.199219 132.253906 294.957031 132.035156 295.710938 L 130.199219 295.929688 C 130.417969 295.386719 130.632812 294.523438 130.957031 293.550781 L 130.847656 293.550781 C 129.445312 295.171875 127.933594 296.035156 126.421875 296.035156 C 124.695312 296.035156 124.152344 295.0625 124.910156 293.011719 C 125.125 292.472656 125.558594 291.390625 126.3125 289.769531 C 127.070312 288.148438 127.5 286.960938 127.824219 286.097656 L 129.660156 285.882812 C 129.554688 286.207031 129.121094 287.175781 128.367188 288.796875 C 127.609375 290.417969 127.070312 291.605469 126.746094 292.472656 C 126.421875 293.226562 126.421875 293.765625 126.636719 294.089844 C 126.851562 294.414062 127.175781 294.523438 127.824219 294.523438 C 128.582031 294.523438 129.445312 294.089844 130.417969 293.121094 C 131.390625 292.148438 132.253906 291.066406 132.683594 289.984375 C 133.441406 288.367188 133.980469 287.070312 134.304688 286.097656 Z M 144.347656 286.097656 L 143.375 287.609375 C 142.835938 287.394531 142.082031 287.285156 141.214844 287.285156 C 139.921875 287.285156 139.054688 287.71875 138.839844 288.582031 C 138.730469 288.90625 138.730469 289.121094 138.949219 289.339844 C 139.164062 289.554688 139.488281 289.769531 140.136719 290.09375 C 141.539062 290.851562 142.082031 291.714844 141.648438 292.902344 C 140.890625 294.957031 139.273438 296.035156 136.679688 296.035156 C 135.601562 296.035156 134.738281 295.929688 133.871094 295.710938 L 134.84375 294.199219 C 135.492188 294.523438 136.355469 294.632812 137.328125 294.632812 C 138.839844 294.632812 139.703125 294.199219 140.027344 293.335938 C 140.246094 292.6875 139.8125 292.148438 138.839844 291.605469 C 137.4375 290.851562 136.898438 289.878906 137.21875 288.796875 C 137.542969 287.824219 138.191406 287.070312 139.054688 286.636719 C 139.921875 286.097656 140.890625 285.882812 141.863281 285.882812 C 142.945312 285.882812 143.699219 285.988281 144.347656 286.097656 Z M 148.992188 293.875 L 148.234375 295.171875 C 147.371094 295.605469 146.507812 295.929688 145.859375 295.929688 C 144.996094 295.929688 144.347656 295.710938 144.132812 295.28125 C 143.914062 294.847656 144.023438 294.089844 144.347656 293.121094 C 144.671875 292.253906 145.429688 290.527344 146.832031 287.71875 C 146.507812 287.71875 145.96875 287.71875 145.210938 287.824219 L 145.96875 286.421875 C 146.617188 286.421875 147.15625 286.53125 147.585938 286.53125 C 147.695312 286.207031 148.234375 285.339844 148.992188 283.613281 L 150.503906 283.503906 C 150.179688 284.152344 149.640625 285.234375 148.992188 286.53125 C 149.640625 286.53125 150.503906 286.53125 151.691406 286.421875 L 150.933594 287.933594 C 149.855469 287.933594 148.992188 287.824219 148.234375 287.824219 C 147.046875 290.09375 146.292969 291.714844 145.96875 292.6875 C 145.644531 293.441406 145.644531 293.984375 145.75 294.199219 C 145.859375 294.523438 146.074219 294.632812 146.617188 294.632812 C 147.371094 294.523438 148.128906 294.308594 148.992188 293.875 Z M 161.195312 290.09375 C 160.65625 291.714844 159.683594 293.121094 158.277344 294.308594 C 156.875 295.496094 155.363281 296.144531 153.742188 296.144531 C 152.664062 296.144531 151.90625 295.710938 151.476562 294.847656 C 151.042969 293.984375 151.042969 292.902344 151.476562 291.605469 C 152.015625 289.984375 152.988281 288.691406 154.390625 287.5 C 155.792969 286.3125 157.308594 285.773438 158.925781 285.773438 C 160.007812 285.773438 160.761719 286.207031 161.195312 286.960938 C 161.734375 287.71875 161.734375 288.796875 161.195312 290.09375 Z M 159.464844 290.417969 C 159.789062 289.445312 159.898438 288.691406 159.683594 288.042969 C 159.464844 287.394531 159.035156 287.070312 158.171875 287.070312 C 157.199219 287.070312 156.226562 287.5 155.253906 288.472656 C 154.28125 289.445312 153.636719 290.417969 153.3125 291.5 C 152.988281 292.472656 152.878906 293.226562 153.09375 293.875 C 153.3125 294.523438 153.742188 294.847656 154.605469 294.847656 C 155.578125 294.847656 156.550781 294.414062 157.523438 293.441406 C 158.386719 292.472656 159.035156 291.5 159.464844 290.417969 Z M 177.824219 288.796875 C 177.609375 289.554688 177.070312 290.742188 176.421875 292.253906 C 175.773438 293.765625 175.234375 294.957031 175.015625 295.710938 L 173.289062 295.820312 C 173.503906 295.28125 173.9375 294.308594 174.691406 292.6875 C 175.449219 291.066406 175.882812 289.984375 176.097656 289.445312 C 176.421875 288.691406 176.421875 288.042969 176.3125 287.71875 C 176.203125 287.394531 175.882812 287.175781 175.339844 287.175781 C 174.476562 287.175781 173.613281 287.609375 172.640625 288.472656 C 171.667969 289.339844 170.914062 290.417969 170.375 291.714844 C 169.617188 293.335938 169.078125 294.632812 168.753906 295.605469 L 167.027344 295.710938 C 167.132812 295.28125 167.671875 294.199219 168.429688 292.578125 C 169.1875 290.957031 169.726562 289.878906 169.941406 289.339844 C 170.265625 288.582031 170.265625 287.933594 170.15625 287.609375 C 170.050781 287.285156 169.726562 287.070312 169.1875 287.070312 C 168.429688 287.070312 167.457031 287.5 166.59375 288.472656 C 165.621094 289.445312 164.867188 290.417969 164.324219 291.714844 C 163.570312 293.335938 163.03125 294.632812 162.597656 295.605469 L 160.871094 295.710938 C 162.597656 292.253906 163.679688 289.878906 164.109375 288.691406 C 164.324219 288.042969 164.648438 287.175781 164.867188 286.097656 L 166.703125 285.882812 C 166.484375 286.53125 166.269531 287.285156 165.945312 288.257812 L 166.054688 288.257812 C 167.457031 286.636719 168.863281 285.773438 170.265625 285.773438 C 171.023438 285.773438 171.5625 285.988281 171.777344 286.421875 C 171.992188 286.851562 171.992188 287.5 171.777344 288.148438 L 171.886719 288.148438 C 173.289062 286.53125 174.691406 285.664062 176.203125 285.664062 C 178.039062 285.882812 178.582031 286.851562 177.824219 288.796875 Z M 183.65625 285.988281 C 183.441406 286.53125 183.222656 287.175781 182.792969 287.933594 C 182.359375 288.796875 181.820312 289.878906 181.28125 291.066406 C 180.847656 292.039062 180.199219 293.550781 179.335938 295.605469 L 177.5 295.710938 C 178.039062 294.632812 178.796875 293.121094 179.769531 291.066406 C 180.417969 289.769531 180.847656 288.472656 181.28125 287.394531 C 181.496094 286.960938 181.605469 286.53125 181.710938 286.207031 Z M 185.492188 282.964844 C 185.382812 283.394531 185.058594 283.71875 184.738281 283.9375 C 184.414062 284.261719 183.980469 284.367188 183.65625 284.367188 C 183.007812 284.367188 182.902344 284.042969 183.117188 283.394531 C 183.222656 282.964844 183.546875 282.640625 183.871094 282.425781 C 184.195312 282.207031 184.628906 281.992188 184.953125 281.992188 C 185.492188 282.101562 185.707031 282.316406 185.492188 282.964844 Z M 192.078125 286.097656 L 191.109375 287.609375 C 190.566406 287.394531 189.8125 287.285156 188.949219 287.285156 C 187.652344 287.285156 186.789062 287.71875 186.570312 288.582031 C 186.464844 288.90625 186.464844 289.121094 186.679688 289.339844 C 186.894531 289.554688 187.21875 289.769531 187.867188 290.09375 C 189.273438 290.851562 189.8125 291.714844 189.378906 292.902344 C 188.625 294.957031 187.003906 296.035156 184.414062 296.035156 C 183.332031 296.035156 182.46875 295.929688 181.605469 295.710938 L 182.578125 294.199219 C 183.222656 294.523438 184.089844 294.632812 185.058594 294.632812 C 186.570312 294.632812 187.4375 294.199219 187.761719 293.335938 C 187.976562 292.6875 187.542969 292.148438 186.570312 291.605469 C 185.167969 290.851562 184.628906 289.878906 184.953125 288.796875 C 185.277344 287.824219 185.925781 287.070312 186.789062 286.636719 C 187.652344 286.097656 188.625 285.882812 189.597656 285.882812 C 190.675781 285.882812 191.539062 285.988281 192.078125 286.097656 Z M 201.257812 288.042969 C 200.933594 288.90625 200.285156 289.664062 199.316406 290.09375 C 198.019531 290.742188 196.074219 291.066406 193.484375 291.066406 C 193.050781 292.253906 192.945312 293.121094 193.160156 293.660156 C 193.375 294.199219 194.023438 294.523438 194.996094 294.523438 C 195.96875 294.523438 197.15625 294.199219 198.558594 293.441406 L 197.804688 294.957031 C 196.617188 295.605469 195.425781 295.929688 194.132812 295.929688 C 192.726562 295.929688 191.863281 295.496094 191.539062 294.738281 C 191.214844 293.875 191.214844 292.902344 191.648438 291.605469 C 192.296875 289.769531 193.375 288.257812 194.78125 287.285156 C 196.183594 286.207031 197.695312 285.773438 199.097656 285.773438 C 199.964844 285.773438 200.609375 285.988281 201.042969 286.421875 C 201.476562 286.746094 201.582031 287.285156 201.257812 288.042969 Z M 199.640625 288.042969 C 199.746094 287.71875 199.746094 287.394531 199.421875 287.175781 C 199.207031 286.960938 198.773438 286.851562 198.234375 286.851562 C 197.480469 286.851562 196.722656 287.070312 195.96875 287.609375 C 195.210938 288.042969 194.457031 288.796875 193.914062 289.878906 C 195.96875 289.878906 197.480469 289.664062 198.34375 289.230469 C 199.097656 289.015625 199.53125 288.582031 199.640625 288.042969 Z M 214.757812 281.453125 C 214.648438 281.667969 214.324219 282.316406 213.679688 283.613281 C 213.03125 284.910156 212.273438 286.421875 211.410156 288.148438 C 210.652344 289.878906 209.898438 291.5 209.359375 293.011719 C 209.035156 293.875 208.710938 294.738281 208.496094 295.605469 L 206.875 295.710938 C 206.980469 295.171875 207.199219 294.414062 207.523438 293.335938 L 207.414062 293.335938 C 205.902344 294.957031 204.5 295.820312 202.878906 295.820312 C 201.90625 295.820312 201.257812 295.496094 200.933594 294.738281 C 200.609375 294.089844 200.609375 293.121094 201.042969 291.929688 C 201.691406 290.09375 202.664062 288.582031 204.066406 287.394531 C 205.363281 286.207031 206.875 285.664062 208.386719 285.664062 C 209.359375 285.664062 210.113281 285.882812 210.4375 286.3125 L 210.546875 286.3125 C 211.195312 284.910156 211.84375 283.289062 212.707031 281.453125 Z M 210.222656 287.71875 C 209.789062 287.285156 209.25 287.175781 208.496094 287.175781 C 207.199219 287.175781 206.117188 287.609375 205.253906 288.367188 C 204.28125 289.121094 203.632812 290.203125 203.09375 291.605469 C 202.339844 293.660156 202.664062 294.738281 204.175781 294.738281 C 204.929688 294.738281 205.792969 294.308594 206.765625 293.335938 C 207.738281 292.363281 208.601562 291.390625 209.140625 290.09375 Z M 228.039062 282.75 L 227.070312 284.367188 C 226.421875 284.042969 225.558594 283.9375 224.367188 283.9375 C 222.53125 283.9375 221.34375 284.585938 220.914062 285.773438 C 220.695312 286.3125 220.804688 286.636719 221.019531 287.070312 C 221.238281 287.394531 221.777344 287.824219 222.425781 288.148438 C 223.289062 288.691406 223.9375 289.230469 224.367188 289.769531 C 224.691406 290.417969 224.800781 291.175781 224.367188 292.039062 C 223.398438 294.632812 221.128906 296.035156 217.671875 296.035156 C 216.484375 296.035156 215.511719 295.929688 214.648438 295.605469 L 215.730469 293.984375 C 216.484375 294.414062 217.347656 294.523438 218.320312 294.523438 C 220.695312 294.523438 222.210938 293.765625 222.640625 292.363281 C 222.855469 291.824219 222.855469 291.28125 222.53125 290.851562 C 222.210938 290.417969 221.667969 289.988281 220.914062 289.554688 C 220.050781 289.015625 219.507812 288.582031 219.183594 288.042969 C 218.859375 287.5 218.859375 286.851562 219.183594 285.988281 C 219.617188 284.800781 220.375 283.828125 221.453125 283.179688 C 222.53125 282.53125 223.722656 282.207031 225.015625 282.207031 C 226.636719 282.425781 227.609375 282.53125 228.039062 282.75 Z M 236.464844 290.09375 C 235.921875 291.714844 234.953125 293.121094 233.546875 294.308594 C 232.144531 295.496094 230.632812 296.144531 229.011719 296.144531 C 227.933594 296.144531 227.175781 295.710938 226.746094 294.847656 C 226.3125 293.984375 226.3125 292.902344 226.746094 291.605469 C 227.285156 289.984375 228.257812 288.691406 229.660156 287.5 C 231.0625 286.3125 232.574219 285.773438 234.195312 285.773438 C 235.277344 285.773438 236.03125 286.207031 236.464844 286.960938 C 236.894531 287.71875 236.894531 288.796875 236.464844 290.09375 Z M 234.628906 290.417969 C 234.953125 289.445312 235.058594 288.691406 234.84375 288.042969 C 234.628906 287.394531 234.195312 287.070312 233.332031 287.070312 C 232.359375 287.070312 231.386719 287.5 230.417969 288.472656 C 229.445312 289.445312 228.796875 290.417969 228.472656 291.5 C 228.148438 292.472656 228.039062 293.226562 228.257812 293.875 C 228.472656 294.523438 228.90625 294.847656 229.769531 294.847656 C 230.742188 294.847656 231.710938 294.414062 232.683594 293.441406 C 233.65625 292.472656 234.304688 291.5 234.628906 290.417969 Z M 248.019531 281.453125 L 247.261719 282.75 C 246.9375 282.75 246.507812 282.640625 246.183594 282.640625 C 245.535156 282.640625 245.101562 282.855469 244.671875 283.394531 C 244.238281 283.9375 243.699219 284.910156 242.941406 286.421875 C 243.589844 286.421875 244.453125 286.421875 245.644531 286.3125 L 244.886719 287.824219 C 243.699219 287.824219 242.835938 287.71875 242.296875 287.71875 C 241.214844 290.203125 240.242188 292.472656 239.273438 294.632812 C 238.300781 296.792969 237.542969 298.195312 236.789062 298.84375 C 236.03125 299.492188 235.167969 300.03125 234.195312 300.25 L 234.089844 299.492188 C 234.84375 298.953125 235.492188 298.414062 236.03125 297.765625 C 236.570312 297.117188 237.21875 295.820312 237.976562 293.984375 C 238.839844 292.148438 239.703125 290.09375 240.785156 287.71875 C 240.351562 287.71875 239.703125 287.71875 238.730469 287.824219 L 239.488281 286.3125 C 240.351562 286.421875 241 286.421875 241.429688 286.421875 C 242.296875 284.691406 243.050781 283.394531 243.914062 282.53125 C 244.777344 281.667969 245.75 281.34375 246.832031 281.34375 C 247.261719 281.234375 247.695312 281.34375 248.019531 281.453125 Z M 249.636719 293.875 L 248.882812 295.171875 C 248.019531 295.605469 247.15625 295.929688 246.507812 295.929688 C 245.644531 295.929688 244.996094 295.710938 244.886719 295.28125 C 244.671875 294.847656 244.777344 294.089844 245.101562 293.121094 C 245.425781 292.253906 246.183594 290.527344 247.585938 287.71875 C 247.261719 287.71875 246.722656 287.71875 245.96875 287.824219 L 246.722656 286.421875 C 247.371094 286.421875 247.910156 286.53125 248.34375 286.53125 C 248.449219 286.207031 248.992188 285.339844 249.746094 283.613281 L 251.257812 283.503906 C 250.933594 284.152344 250.394531 285.234375 249.746094 286.53125 C 250.394531 286.53125 251.257812 286.53125 252.445312 286.421875 L 251.691406 287.933594 C 250.609375 287.933594 249.746094 287.824219 248.992188 287.824219 C 247.804688 290.09375 247.046875 291.714844 246.722656 292.6875 C 246.398438 293.441406 246.398438 293.984375 246.507812 294.199219 C 246.613281 294.523438 246.832031 294.632812 247.371094 294.632812 C 247.910156 294.523438 248.773438 294.308594 249.636719 293.875 Z M 268.214844 286.097656 C 267.996094 286.746094 266.699219 288.367188 264.324219 291.066406 C 261.949219 293.765625 260.652344 295.386719 260.546875 295.710938 L 259.25 295.710938 C 259.359375 295.496094 259.464844 294.414062 259.789062 292.472656 C 260.003906 290.527344 260.222656 289.015625 260.4375 287.933594 L 260.328125 287.933594 C 259.464844 289.121094 258.167969 290.632812 256.65625 292.578125 C 255.039062 294.414062 254.175781 295.496094 254.066406 295.710938 L 252.769531 295.710938 C 252.878906 295.386719 253.09375 293.765625 253.417969 291.066406 C 253.742188 288.367188 253.957031 286.636719 254.066406 286.207031 L 255.902344 286.097656 C 255.6875 286.636719 255.46875 288.042969 255.144531 290.203125 C 254.820312 292.363281 254.605469 293.550781 254.5 293.875 L 254.605469 293.875 C 254.820312 293.335938 255.792969 292.039062 257.628906 289.984375 C 259.359375 287.933594 260.328125 286.636719 260.4375 286.3125 L 262.058594 286.3125 C 261.949219 286.636719 261.734375 287.933594 261.519531 290.203125 C 261.195312 292.472656 261.085938 293.765625 260.976562 293.984375 L 261.085938 293.984375 C 261.195312 293.660156 262.164062 292.472656 263.785156 290.308594 C 265.40625 288.257812 266.378906 286.851562 266.59375 286.3125 Z M 277.609375 285.664062 C 275.773438 289.015625 274.585938 291.5 274.042969 293.121094 C 273.828125 293.875 273.503906 294.632812 273.289062 295.605469 L 271.453125 295.820312 C 271.667969 295.171875 271.882812 294.523438 272.207031 293.550781 L 272.101562 293.550781 C 270.695312 295.0625 269.292969 295.820312 267.890625 295.820312 C 267.023438 295.820312 266.59375 295.496094 266.378906 294.847656 C 266.160156 294.199219 266.269531 293.335938 266.59375 292.363281 C 267.242188 290.742188 268.320312 289.230469 269.941406 288.042969 C 271.5625 286.851562 273.503906 286.207031 275.664062 286.097656 L 276.203125 285.773438 Z M 275.125 287.285156 C 273.398438 287.285156 271.992188 287.824219 270.914062 288.691406 C 269.832031 289.554688 268.96875 290.742188 268.429688 292.253906 C 267.890625 293.765625 268.105469 294.523438 269.183594 294.523438 C 269.941406 294.523438 270.695312 293.984375 271.667969 293.011719 C 272.640625 292.039062 273.289062 291.066406 273.71875 290.203125 C 274.261719 289.445312 274.691406 288.472656 275.125 287.285156 Z M 285.921875 286.097656 L 284.734375 287.71875 C 284.304688 287.609375 283.871094 287.5 283.441406 287.5 C 281.929688 287.5 280.738281 288.257812 279.984375 289.878906 C 278.902344 292.148438 278.039062 294.089844 277.390625 295.710938 L 275.664062 295.820312 C 277.390625 292.363281 278.472656 289.984375 278.902344 288.796875 C 279.121094 288.148438 279.445312 287.285156 279.660156 286.207031 L 281.496094 285.988281 C 281.386719 286.527344 281.171875 287.070312 281.0625 287.5 L 281.171875 287.5 C 282.359375 286.421875 283.441406 285.882812 284.304688 285.882812 C 284.84375 285.773438 285.382812 285.882812 285.921875 286.097656 Z M 294.238281 288.042969 C 293.914062 288.90625 293.265625 289.664062 292.292969 290.09375 C 291 290.742188 289.054688 291.066406 286.464844 291.066406 C 286.03125 292.253906 285.921875 293.121094 286.140625 293.660156 C 286.355469 294.199219 287.003906 294.523438 287.976562 294.523438 C 288.945312 294.523438 290.136719 294.199219 291.539062 293.441406 L 290.78125 294.957031 C 289.59375 295.605469 288.40625 295.929688 287.109375 295.929688 C 285.707031 295.929688 284.84375 295.496094 284.519531 294.738281 C 284.195312 293.875 284.195312 292.902344 284.628906 291.605469 C 285.277344 289.769531 286.355469 288.257812 287.757812 287.285156 C 289.164062 286.207031 290.675781 285.773438 292.078125 285.773438 C 292.941406 285.773438 293.589844 285.988281 294.023438 286.421875 C 294.453125 286.746094 294.5625 287.285156 294.238281 288.042969 Z M 292.726562 288.042969 C 292.835938 287.71875 292.835938 287.394531 292.511719 287.175781 C 292.292969 286.960938 291.863281 286.851562 291.324219 286.851562 C 290.566406 286.851562 289.8125 287.070312 289.054688 287.609375 C 288.300781 288.042969 287.542969 288.796875 287.003906 289.878906 C 289.054688 289.878906 290.566406 289.664062 291.429688 289.230469 C 292.078125 289.015625 292.511719 288.582031 292.726562 288.042969 Z M 310.003906 282.75 L 309.035156 284.367188 C 308.386719 284.042969 307.523438 283.9375 306.332031 283.9375 C 304.496094 283.9375 303.308594 284.585938 302.878906 285.773438 C 302.660156 286.3125 302.769531 286.636719 302.984375 287.070312 C 303.203125 287.394531 303.742188 287.824219 304.390625 288.148438 C 305.253906 288.691406 305.902344 289.230469 306.332031 289.769531 C 306.65625 290.417969 306.765625 291.175781 306.332031 292.039062 C 305.363281 294.632812 303.09375 296.035156 299.636719 296.035156 C 298.449219 296.035156 297.476562 295.929688 296.613281 295.605469 L 297.695312 293.984375 C 298.449219 294.414062 299.3125 294.523438 300.285156 294.523438 C 302.660156 294.523438 304.171875 293.765625 304.605469 292.363281 C 304.820312 291.824219 304.820312 291.28125 304.496094 290.851562 C 304.171875 290.417969 303.632812 289.988281 302.878906 289.554688 C 302.015625 289.015625 301.472656 288.582031 301.148438 288.042969 C 300.824219 287.5 300.824219 286.851562 301.148438 285.988281 C 301.582031 284.800781 302.339844 283.828125 303.417969 283.179688 C 304.496094 282.53125 305.6875 282.207031 306.980469 282.207031 C 308.492188 282.425781 309.574219 282.53125 310.003906 282.75 Z M 318.429688 290.09375 C 317.886719 291.714844 316.917969 293.121094 315.511719 294.308594 C 314.109375 295.496094 312.597656 296.144531 310.976562 296.144531 C 309.898438 296.144531 309.140625 295.710938 308.710938 294.847656 C 308.277344 293.984375 308.277344 292.902344 308.710938 291.605469 C 309.25 289.984375 310.222656 288.691406 311.625 287.5 C 313.027344 286.3125 314.539062 285.773438 316.160156 285.773438 C 317.242188 285.773438 317.996094 286.207031 318.429688 286.960938 C 318.859375 287.71875 318.859375 288.796875 318.429688 290.09375 Z M 316.59375 290.417969 C 316.917969 289.445312 317.023438 288.691406 316.808594 288.042969 C 316.59375 287.394531 316.160156 287.070312 315.296875 287.070312 C 314.324219 287.070312 313.351562 287.5 312.382812 288.472656 C 311.410156 289.445312 310.761719 290.417969 310.4375 291.5 C 310.113281 292.472656 310.003906 293.226562 310.222656 293.875 C 310.4375 294.523438 310.871094 294.847656 311.734375 294.847656 C 312.703125 294.847656 313.675781 294.414062 314.648438 293.441406 C 315.511719 292.472656 316.160156 291.5 316.59375 290.417969 Z M 326.527344 281.453125 C 326.417969 281.882812 325.988281 282.75 325.230469 284.152344 C 324.585938 285.558594 323.9375 286.851562 323.289062 288.257812 C 321.882812 291.390625 320.804688 293.875 320.046875 295.710938 L 318.105469 295.929688 C 318.210938 295.605469 318.644531 294.738281 319.402344 293.226562 C 320.15625 291.714844 320.914062 290.09375 321.777344 288.257812 C 323.070312 285.558594 323.9375 283.289062 324.585938 281.667969 Z M 335.273438 285.988281 C 333.4375 289.664062 332.359375 292.148438 331.925781 293.441406 C 331.710938 294.199219 331.496094 294.957031 331.28125 295.710938 L 329.445312 295.929688 C 329.660156 295.386719 329.875 294.523438 330.199219 293.550781 L 330.089844 293.550781 C 328.6875 295.171875 327.175781 296.035156 325.664062 296.035156 C 323.9375 296.035156 323.394531 295.0625 324.152344 293.011719 C 324.367188 292.472656 324.800781 291.390625 325.554688 289.769531 C 326.3125 288.148438 326.742188 286.960938 327.066406 286.097656 L 328.902344 285.882812 C 328.796875 286.207031 328.363281 287.175781 327.609375 288.796875 C 326.851562 290.417969 326.3125 291.605469 325.988281 292.472656 C 325.664062 293.226562 325.664062 293.765625 325.878906 294.089844 C 326.097656 294.414062 326.417969 294.523438 327.066406 294.523438 C 327.824219 294.523438 328.6875 294.089844 329.660156 293.121094 C 330.632812 292.148438 331.496094 291.066406 331.925781 289.984375 C 332.683594 288.367188 333.222656 287.070312 333.546875 286.097656 Z M 340.242188 293.875 L 339.488281 295.171875 C 338.621094 295.605469 337.757812 295.929688 337.109375 295.929688 C 336.246094 295.929688 335.597656 295.710938 335.492188 295.28125 C 335.273438 294.847656 335.382812 294.089844 335.707031 293.121094 C 336.03125 292.253906 336.785156 290.527344 338.191406 287.71875 C 337.867188 287.71875 337.328125 287.71875 336.570312 287.824219 L 337.328125 286.421875 C 337.976562 286.421875 338.515625 286.53125 338.945312 286.53125 C 339.054688 286.207031 339.59375 285.339844 340.351562 283.613281 L 341.863281 283.503906 C 341.539062 284.152344 341 285.234375 340.351562 286.53125 C 341 286.53125 341.863281 286.53125 343.050781 286.421875 L 342.292969 287.933594 C 341.214844 287.933594 340.351562 287.824219 339.59375 287.824219 C 338.40625 290.09375 337.652344 291.714844 337.328125 292.6875 C 337.003906 293.441406 337.003906 293.984375 337.109375 294.199219 C 337.21875 294.523438 337.433594 294.632812 337.976562 294.632812 C 338.515625 294.523438 339.269531 294.308594 340.242188 293.875 Z M 347.476562 285.988281 C 347.261719 286.53125 347.046875 287.175781 346.613281 287.933594 C 346.183594 288.796875 345.640625 289.878906 345.101562 291.066406 C 344.671875 292.039062 344.023438 293.550781 343.160156 295.605469 L 341.324219 295.710938 C 341.863281 294.632812 342.617188 293.121094 343.589844 291.066406 C 344.238281 289.769531 344.671875 288.472656 345.101562 287.394531 C 345.316406 286.960938 345.425781 286.53125 345.535156 286.207031 Z M 349.207031 282.964844 C 349.097656 283.394531 348.773438 283.71875 348.449219 283.9375 C 348.125 284.261719 347.695312 284.367188 347.371094 284.367188 C 346.722656 284.367188 346.613281 284.042969 346.828125 283.394531 C 346.9375 282.964844 347.261719 282.640625 347.585938 282.425781 C 347.910156 282.207031 348.34375 281.992188 348.664062 281.992188 C 349.3125 282.101562 349.421875 282.316406 349.207031 282.964844 Z M 357.089844 290.09375 C 356.550781 291.714844 355.578125 293.121094 354.171875 294.308594 C 352.769531 295.496094 351.257812 296.144531 349.636719 296.144531 C 348.558594 296.144531 347.800781 295.710938 347.371094 294.847656 C 346.9375 293.984375 346.9375 292.902344 347.371094 291.605469 C 347.910156 289.984375 348.882812 288.691406 350.285156 287.5 C 351.691406 286.3125 353.203125 285.773438 354.820312 285.773438 C 355.902344 285.773438 356.65625 286.207031 357.089844 286.960938 C 357.519531 287.71875 357.519531 288.796875 357.089844 290.09375 Z M 355.253906 290.417969 C 355.578125 289.445312 355.683594 288.691406 355.46875 288.042969 C 355.253906 287.394531 354.820312 287.070312 353.957031 287.070312 C 352.984375 287.070312 352.011719 287.5 351.042969 288.472656 C 350.070312 289.445312 349.421875 290.417969 349.097656 291.5 C 348.773438 292.472656 348.664062 293.226562 348.882812 293.875 C 349.097656 294.523438 349.53125 294.847656 350.394531 294.847656 C 351.367188 294.847656 352.335938 294.414062 353.308594 293.441406 C 354.171875 292.472656 354.820312 291.5 355.253906 290.417969 Z M 367.886719 288.796875 C 367.671875 289.339844 367.242188 290.417969 366.484375 292.039062 C 365.726562 293.660156 365.296875 294.847656 364.972656 295.710938 L 363.246094 295.820312 C 363.351562 295.496094 363.785156 294.523438 364.539062 293.011719 C 365.296875 291.390625 365.835938 290.203125 366.160156 289.339844 C 366.484375 288.582031 366.484375 288.042969 366.269531 287.71875 C 366.050781 287.394531 365.726562 287.285156 365.082031 287.285156 C 364.324219 287.285156 363.460938 287.71875 362.488281 288.691406 C 361.515625 289.664062 360.652344 290.742188 360.222656 291.824219 C 359.574219 293.335938 358.925781 294.632812 358.492188 295.710938 L 356.765625 295.820312 C 358.492188 292.363281 359.574219 289.984375 360.003906 288.796875 C 360.222656 288.148438 360.542969 287.285156 360.761719 286.207031 L 362.597656 285.988281 C 362.378906 286.527344 362.164062 287.394531 361.839844 288.367188 L 361.949219 288.367188 C 363.351562 286.746094 364.863281 285.882812 366.375 285.882812 C 368.105469 285.882812 368.644531 286.851562 367.886719 288.796875 Z M 377.5 286.097656 L 376.527344 287.609375 C 375.988281 287.394531 375.230469 287.285156 374.367188 287.285156 C 373.070312 287.285156 372.207031 287.71875 371.992188 288.582031 C 371.882812 288.90625 371.882812 289.121094 372.101562 289.339844 C 372.316406 289.554688 372.640625 289.769531 373.289062 290.09375 C 374.691406 290.851562 375.230469 291.714844 374.800781 292.902344 C 374.042969 294.957031 372.421875 296.035156 369.832031 296.035156 C 368.753906 296.035156 367.886719 295.929688 367.023438 295.710938 L 367.996094 294.199219 C 368.644531 294.523438 369.507812 294.632812 370.480469 294.632812 C 371.992188 294.632812 372.855469 294.199219 373.179688 293.335938 C 373.394531 292.6875 372.964844 292.148438 371.992188 291.605469 C 370.589844 290.851562 370.046875 289.878906 370.371094 288.796875 C 370.695312 287.824219 371.34375 287.070312 372.207031 286.636719 C 373.070312 286.097656 374.042969 285.882812 375.015625 285.882812 C 376.09375 285.882812 376.960938 285.988281 377.5 286.097656 Z M 377.5 286.097656 " fill-opacity="1" fill-rule="evenodd"/></svg>